<?xml version="1.0" encoding="UTF-8" standalone="no"?>
<!-- Created with Inkscape (http://www.inkscape.org/) -->

<svg
   xmlns:dc="http://purl.org/dc/elements/1.1/"
   xmlns:cc="http://creativecommons.org/ns#"
   xmlns:rdf="http://www.w3.org/1999/02/22-rdf-syntax-ns#"
   xmlns:svg="http://www.w3.org/2000/svg"
   xmlns="http://www.w3.org/2000/svg"
   xmlns:sodipodi="http://sodipodi.sourceforge.net/DTD/sodipodi-0.dtd"
   xmlns:inkscape="http://www.inkscape.org/namespaces/inkscape"
   width="50"
   height="50"
   fill="#33171D"
   viewBox="0 0 10.583333 10.583334"
   version="1.1"
   id="svg3758"
   inkscape:version="0.92.4 (5da689c313, 2019-01-14)"
   sodipodi:docname="toto.svg">
  <defs
     id="defs3752" />
  <sodipodi:namedview
     id="base"
     pagecolor="#ffffff"
     bordercolor="#666666"
     borderopacity="1.0"
     inkscape:pageopacity="0.0"
     inkscape:pageshadow="2"
     inkscape:zoom="1.979899"
     inkscape:cx="-0.81672411"
     inkscape:cy="126.86367"
     inkscape:document-units="mm"
     inkscape:current-layer="layer1"
     showgrid="false"
     units="px"
     inkscape:window-width="1920"
     inkscape:window-height="1027"
     inkscape:window-x="-8"
     inkscape:window-y="-8"
     inkscape:window-maximized="1" />
  <metadata
     id="metadata3755">
    <rdf:RDF>
      <cc:Work
         rdf:about="">
        <dc:format>image/svg+xml</dc:format>
        <dc:type
           rdf:resource="http://purl.org/dc/dcmitype/StillImage" />
        <dc:title></dc:title>
      </cc:Work>
    </rdf:RDF>
  </metadata>
  <g
     inkscape:label="Calque 1"
     inkscape:groupmode="layer"
     id="layer1"
     transform="translate(0,-286.41665)">
    <path
       inkscape:connector-curvature="0"
       d="m 9.7169789,290.2878 c 2.58e-4,-4.5e-4 6.65e-4,-9.5e-4 9.03e-4,-10e-4 5.69e-4,-9.5e-4 9.97e-4,-0.002 0.0015,-0.003 0.0013,-0.002 0.0026,-0.004 0.0038,-0.007 8.08e-4,-10e-4 0.0015,-0.003 0.0022,-0.005 10e-4,-0.002 0.002,-0.004 0.0029,-0.007 7.13e-4,-0.002 0.0014,-0.004 0.002,-0.005 7.12e-4,-0.002 0.0014,-0.004 0.002,-0.006 5.7e-4,-0.002 0.0011,-0.004 0.0016,-0.006 4.5e-4,-0.002 8.55e-4,-0.004 0.0012,-0.006 4.51e-4,-0.002 8.08e-4,-0.005 0.0011,-0.007 1.93e-4,-0.002 4.51e-4,-0.003 5.7e-4,-0.005 1.93e-4,-0.002 3.22e-4,-0.005 3.86e-4,-0.008 3.4e-5,-9.5e-4 1.94e-4,-0.002 1.94e-4,-0.003 0,-4.8e-4 -6.5e-5,-10e-4 -1.29e-4,-0.002 -3.4e-5,-0.002 -1.93e-4,-0.005 -3.86e-4,-0.007 -1.29e-4,-0.002 -2.58e-4,-0.004 -5.22e-4,-0.006 -2.58e-4,-0.002 -5.7e-4,-0.004 -9.03e-4,-0.006 -3.86e-4,-0.002 -7.12e-4,-0.005 -0.0012,-0.007 -3.86e-4,-0.001 -8.07e-4,-0.003 -0.0012,-0.005 -6.65e-4,-0.002 -0.0013,-0.005 -0.002,-0.007 -4.51e-4,-0.001 -10e-4,-0.003 -0.0016,-0.004 -9.02e-4,-0.002 -0.0018,-0.005 -0.0028,-0.007 -7.12e-4,-10e-4 -0.0015,-0.003 -0.0023,-0.005 -9.97e-4,-0.002 -0.0019,-0.004 -0.0031,-0.006 -0.001,-0.002 -0.0022,-0.004 -0.0034,-0.006 -9.98e-4,-10e-4 -0.0019,-0.003 -0.003,-0.005 -0.0014,-0.002 -0.0029,-0.004 -0.0045,-0.006 -9.97e-4,-10e-4 -0.0019,-0.002 -0.0029,-0.004 -0.0016,-0.002 -0.0033,-0.004 -0.005,-0.005 -0.0011,-0.001 -0.0023,-0.002 -0.0035,-0.004 -0.0016,-10e-4 -0.0033,-0.003 -0.0049,-0.004 -0.0015,-10e-4 -0.0031,-0.003 -0.0047,-0.004 -0.0015,-9.5e-4 -0.003,-0.002 -0.0045,-0.003 -0.002,-10e-4 -0.004,-0.003 -0.0061,-0.004 -5.22e-4,-3.2e-4 -9.97e-4,-9.5e-4 -0.0016,-9.5e-4 l -1.0894891,-0.68093 c -7.597e-4,-4.5e-4 -0.00152,-9.5e-4 -0.00228,-10e-4 -0.00152,-9.5e-4 -0.00299,-0.002 -0.00456,-0.003 -9.496e-4,-4.8e-4 -0.0019,-9.5e-4 -0.00285,-0.001 -0.00152,-9.5e-4 -0.00309,-10e-4 -0.00465,-0.002 -0.00123,-4.8e-4 -0.00247,-9.5e-4 -0.00375,-0.002 -9.021e-4,-3.8e-4 -0.00176,-4.8e-4 -0.00266,-9.5e-4 -0.00209,-9.5e-4 -0.00418,-10e-4 -0.00625,-0.002 -7.597e-4,-2.6e-4 -0.00147,-4.8e-4 -0.00228,-9.5e-4 -2.573e-4,-7e-5 -4.506e-4,-1.3e-4 -7.122e-4,-2e-4 -7.597e-4,-1.9e-4 -0.00152,-3.8e-4 -0.00223,-4.7e-4 -0.00242,-4.8e-4 -0.00487,-0.001 -0.00732,-0.002 -9.496e-4,-2e-4 -0.00185,-4.8e-4 -0.0028,-4.8e-4 -6.648e-4,-1.3e-4 -0.00123,-1.9e-4 -0.00185,-3.2e-4 -0.00247,-4.5e-4 -0.00497,-9.4e-4 -0.00747,-9.4e-4 -0.0018,-2e-4 -0.00356,-4.6e-4 -0.00538,-4.8e-4 -0.00218,-1.9e-4 -0.00437,-3.2e-4 -0.00657,-3.8e-4 -0.00209,-7e-5 -0.00418,-1.4e-4 -0.00627,-7e-5 -0.0019,3e-5 -0.0038,1.3e-4 -0.0057,2.6e-4 -7.597e-4,5e-5 -0.00152,5e-5 -0.00223,1.2e-4 -5.223e-4,4e-5 -9.971e-4,2e-5 -0.00147,7e-5 -0.00104,1.3e-4 -0.00204,2.6e-4 -0.00309,3.8e-4 -0.00176,2e-4 -0.00351,4.6e-4 -0.00526,9.5e-4 -5.698e-4,7e-5 -0.00114,1.3e-4 -0.00171,2.7e-4 -8.072e-4,1.2e-4 -0.00157,1.9e-4 -0.00233,3.1e-4 -9.497e-4,2e-4 -0.00185,4.5e-4 -0.0028,4.8e-4 -0.00176,3.8e-4 -0.00347,9.5e-4 -0.00524,0.001 -0.00218,4.8e-4 -0.00432,9.5e-4 -0.00647,0.002 -0.00185,4.8e-4 -0.0037,10e-4 -0.00555,0.002 -0.00138,4.8e-4 -0.00275,9.5e-4 -0.00408,0.001 -5.697e-4,1.9e-4 -0.00109,4.7e-4 -0.00166,9.5e-4 -0.00199,9.5e-4 -0.00394,0.002 -0.00587,0.003 -0.00133,4.8e-4 -0.00271,0.001 -0.00399,0.002 -1.286e-4,7e-5 -3.214e-4,1.3e-4 -4.501e-4,1.9e-4 l -1.9502246,1.04025 -1.1592843,-1.41692 c -5.08e-5,-6e-5 -1.22e-4,-1.3e-4 -1.671e-4,-1.9e-4 -3.604e-4,-4.5e-4 -7.122e-4,-9.5e-4 -0.00109,-10e-4 -9.021e-4,-9.5e-4 -0.0019,-0.002 -0.00285,-0.003 -0.0018,-0.002 -0.00361,-0.004 -0.00555,-0.006 -0.00114,-9.5e-4 -0.00237,-0.002 -0.00356,-0.003 -0.00185,-0.002 -0.00366,-0.003 -0.00564,-0.005 -0.00185,-10e-4 -0.00385,-0.003 -0.00575,-0.004 -1.543e-4,-1.3e-4 -2.896e-4,-2e-4 -4.439e-4,-3.3e-4 -0.00128,-9.5e-4 -0.00252,-0.002 -0.0038,-0.003 -0.00195,-0.001 -0.00404,-0.002 -0.0061,-0.004 -0.00157,-9.5e-4 -0.00309,-0.002 -0.00465,-0.003 -0.0019,-9.5e-4 -0.00389,-0.002 -0.00589,-0.003 -0.0018,-9.5e-4 -0.00361,-0.002 -0.00547,-0.002 -0.00176,-9.5e-4 -0.00361,-0.001 -0.00543,-0.002 -0.00218,-9.5e-4 -0.00432,-10e-4 -0.0065,-0.002 -2.702e-4,-6e-5 -5.698e-4,-1.9e-4 -8.072e-4,-2.6e-4 -0.00195,-4.7e-4 -0.00389,-9.5e-4 -0.00582,-0.001 -0.00176,-3.9e-4 -0.00351,-9.5e-4 -0.00528,-10e-4 -7.597e-4,-1.3e-4 -0.00147,-3.2e-4 -0.00223,-4.5e-4 L 1.460717,288.32489 c -0.00128,-1.9e-4 -0.00252,-2.6e-4 -0.00375,-4.6e-4 -0.00228,-3.1e-4 -0.00456,-4.7e-4 -0.00688,-9.4e-4 -0.00209,-1.9e-4 -0.00418,-3.2e-4 -0.00628,-3.9e-4 -0.00199,-7e-5 -0.00399,-1.3e-4 -0.00598,-1.3e-4 -0.00228,0 -0.00456,6e-5 -0.00681,2e-4 -0.00185,1.3e-4 -0.0037,2.5e-4 -0.00553,3.8e-4 -0.00228,2e-4 -0.00456,4.8e-4 -0.00679,9.5e-4 -0.00185,3.2e-4 -0.00375,4.8e-4 -0.00558,9.5e-4 -0.00214,4.5e-4 -0.00427,9.5e-4 -0.00637,0.001 -0.00195,4.7e-4 -0.00389,9.4e-4 -0.00585,10e-4 -0.00195,4.7e-4 -0.00385,10e-4 -0.00579,0.002 -0.00204,9.5e-4 -0.00404,10e-4 -0.00601,0.002 -0.00185,9.5e-4 -0.00361,10e-4 -0.00543,0.002 -0.00195,9.5e-4 -0.00385,0.002 -0.00577,0.003 -0.00185,9.5e-4 -0.00366,0.002 -0.00545,0.003 -0.00171,9.5e-4 -0.00342,0.002 -0.00512,0.003 -0.00199,0.001 -0.00389,0.003 -0.00577,0.004 -9.971e-4,9.5e-4 -0.00204,10e-4 -0.00299,0.002 -4.568e-4,3.9e-4 -8.547e-4,9.5e-4 -0.00128,9.5e-4 -0.0019,10e-4 -0.00375,0.003 -0.00555,0.005 -0.00133,10e-4 -0.00266,0.002 -0.00389,0.004 -0.00161,10e-4 -0.00313,0.003 -0.0047,0.005 -0.00128,10e-4 -0.00261,0.003 -0.0038,0.004 -0.00138,0.002 -0.00261,0.003 -0.00389,0.005 -0.00119,10e-4 -0.00242,0.003 -0.00351,0.005 -0.00114,0.002 -0.00218,0.004 -0.00328,0.005 -0.00104,0.002 -0.00214,0.003 -0.00309,0.005 -9.497e-4,0.002 -0.0018,0.004 -0.00266,0.006 -9.022e-4,0.002 -0.00185,0.004 -0.00266,0.006 -7.597e-4,0.002 -0.00138,0.004 -0.00204,0.006 -7.597e-4,0.002 -0.00152,0.004 -0.00218,0.006 -5.223e-4,0.002 -9.496e-4,0.004 -0.00142,0.005 -5.698e-4,0.002 -0.00114,0.005 -0.00161,0.007 -1.159e-4,4.8e-4 -3.091e-4,9.5e-4 -4.055e-4,0.002 -2.379e-4,10e-4 -3.086e-4,0.002 -4.748e-4,0.004 -3.219e-4,0.002 -6.647e-4,0.004 -8.547e-4,0.007 -2.06e-4,0.002 -3.091e-4,0.004 -3.926e-4,0.006 -8.36e-5,0.002 -1.544e-4,0.004 -1.544e-4,0.006 0,0.002 1.031e-4,0.004 2.189e-4,0.007 1.031e-4,0.002 2.379e-4,0.004 4.245e-4,0.006 2.189e-4,0.002 5.223e-4,0.004 8.547e-4,0.007 2.896e-4,0.002 6.172e-4,0.004 9.971e-4,0.006 4.25e-4,0.002 9.021e-4,0.004 0.00142,0.006 5.223e-4,0.002 0.00104,0.004 0.00166,0.006 6.173e-4,0.002 0.00123,0.004 0.00195,0.006 7.122e-4,0.002 0.00152,0.004 0.00233,0.006 7.597e-4,0.002 0.00157,0.004 0.00242,0.005 9.022e-4,0.002 0.00185,0.004 0.0029,0.006 9.971e-4,0.002 0.00204,0.004 0.00313,0.005 0.00104,0.002 0.00209,0.003 0.00323,0.005 0.00133,0.002 0.00271,0.004 0.00413,0.006 7.597e-4,9.5e-4 0.00138,0.002 0.00218,0.003 l 0.8145976,1.01822 H 1.1661 c -0.00114,0 -0.00228,1.3e-4 -0.00342,2e-4 -0.00233,6e-5 -0.0047,1.9e-4 -0.00705,3.8e-4 -0.00204,2e-4 -0.00408,3.9e-4 -0.00613,4.8e-4 -0.00199,2.5e-4 -0.00399,4.7e-4 -0.00596,9.5e-4 -0.00223,3.9e-4 -0.00446,9.5e-4 -0.00666,10e-4 -0.00176,3.9e-4 -0.00351,9.5e-4 -0.00528,0.001 -0.00228,4.7e-4 -0.00446,10e-4 -0.00669,0.002 -0.00171,4.8e-4 -0.00342,10e-4 -0.00512,0.002 -0.00209,9.5e-4 -0.00413,0.002 -0.00618,0.002 -0.0018,9.5e-4 -0.00361,0.002 -0.00536,0.002 -0.0018,9.5e-4 -0.00361,0.002 -0.00539,0.003 -0.0019,9.5e-4 -0.00375,0.002 -0.00558,0.003 -0.00157,9.5e-4 -0.00313,0.002 -0.00465,0.003 -0.00185,10e-4 -0.0037,0.003 -0.0055,0.004 -0.00147,9.5e-4 -0.0029,0.002 -0.00427,0.003 -0.00166,10e-4 -0.00337,0.003 -0.00497,0.005 -0.00147,10e-4 -0.0029,0.003 -0.00432,0.004 -0.00138,10e-4 -0.00275,0.003 -0.00408,0.005 -0.00157,0.002 -0.00304,0.004 -0.00446,0.006 -7.122e-4,9.5e-4 -0.00142,0.002 -0.00214,0.003 -3.922e-4,4.7e-4 -7.122e-4,9.5e-4 -0.00109,0.001 -0.00147,0.002 -0.0028,0.004 -0.00413,0.006 -9.021e-4,0.001 -0.00185,0.003 -0.00266,0.004 -0.00119,0.002 -0.00223,0.004 -0.00332,0.006 -8.072e-4,0.001 -0.00166,0.003 -0.00242,0.005 -9.022e-4,0.002 -0.00166,0.004 -0.00242,0.006 -7.122e-4,0.002 -0.00147,0.004 -0.00209,0.006 -6.172e-4,0.002 -0.00114,0.004 -0.00166,0.006 -6.173e-4,0.002 -0.00119,0.004 -0.00166,0.006 -3.927e-4,0.002 -6.647e-4,0.004 -9.971e-4,0.005 -4.055e-4,0.002 -8.072e-4,0.005 -0.00109,0.007 -2.061e-4,0.002 -3.091e-4,0.003 -4.249e-4,0.005 -1.866e-4,0.002 -3.41e-4,0.005 -3.733e-4,0.007 -5.08e-5,4.7e-4 -1.348e-4,0.001 -1.348e-4,0.002 0,9.5e-4 1.348e-4,0.002 1.671e-4,0.003 7.08e-5,0.002 1.544e-4,0.005 3.604e-4,0.007 1.672e-4,0.002 4.055e-4,0.004 6.648e-4,0.006 2.573e-4,0.002 5.697e-4,0.004 9.021e-4,0.006 3.922e-4,0.002 8.547e-4,0.004 0.00138,0.007 4.245e-4,0.002 8.547e-4,0.003 0.00138,0.005 6.172e-4,0.002 0.00133,0.004 0.00204,0.007 6.172e-4,0.002 0.00123,0.003 0.0019,0.005 8.072e-4,0.002 0.00166,0.004 0.00256,0.006 8.547e-4,0.002 0.00171,0.004 0.00261,0.005 9.022e-4,0.002 0.00185,0.003 0.00285,0.005 0.00109,0.002 0.00228,0.004 0.00347,0.006 9.971e-4,10e-4 0.00199,0.003 0.00309,0.005 0.00133,0.002 0.00271,0.004 0.00418,0.006 0.00114,0.001 0.00228,0.003 0.00351,0.004 0.00147,0.002 0.00299,0.003 0.00456,0.005 0.00138,10e-4 0.00285,0.003 0.00432,0.004 0.00147,10e-4 0.00294,0.003 0.00451,0.004 0.0018,0.001 0.00366,0.003 0.00553,0.004 9.021e-4,4.7e-4 0.00171,10e-4 0.00266,0.002 l 2.9331766,2.13322 -0.5326581,3.46229 c -7.07e-5,3.9e-4 -1.22e-4,9.5e-4 -1.866e-4,10e-4 l -7.07e-5,3.9e-4 c -8.36e-5,4.7e-4 -8.36e-5,9.5e-4 -1.543e-4,10e-4 -5.223e-4,0.004 -9.022e-4,0.007 -0.00114,0.0109 -8.35e-5,0.001 -3.37e-5,0.003 -7.07e-5,0.004 -5.08e-5,0.003 -1.221e-4,0.005 -1.71e-5,0.008 8.35e-5,0.002 3.219e-4,0.004 5.223e-4,0.006 1.866e-4,0.002 3.086e-4,0.004 5.698e-4,0.006 3.409e-4,0.002 8.546e-4,0.005 0.00133,0.007 3.215e-4,10e-4 5.698e-4,0.003 9.497e-4,0.005 5.698e-4,0.002 0.00133,0.005 0.00204,0.007 4.568e-4,10e-4 9.021e-4,0.003 0.00142,0.005 7.597e-4,0.002 0.00166,0.004 0.00252,0.007 6.647e-4,0.002 0.00133,0.003 0.00209,0.005 8.546e-4,0.002 0.0018,0.004 0.00275,0.005 9.971e-4,0.002 0.00195,0.004 0.00299,0.006 8.547e-4,10e-4 0.00185,0.003 0.00275,0.004 0.00128,0.002 0.00261,0.004 0.00404,0.006 9.022e-4,10e-4 0.00185,0.002 0.0028,0.004 0.00157,0.002 0.00318,0.004 0.00489,0.006 0.00104,9.5e-4 0.00214,0.002 0.00318,0.003 0.00176,0.002 0.00347,0.004 0.00531,0.005 0.00138,0.001 0.00285,0.002 0.00432,0.004 0.00161,10e-4 0.00323,0.003 0.00497,0.004 0.00209,10e-4 0.00432,0.003 0.00652,0.005 0.00119,9.5e-4 0.00233,0.002 0.00356,0.002 0.00309,0.002 0.00628,0.004 0.00955,0.005 4.568e-4,2.6e-4 8.546e-4,4.8e-4 0.00133,9.5e-4 5.08e-5,2e-5 1.03e-4,4e-5 1.543e-4,6e-5 0.00432,0.002 0.00875,0.004 0.013328,0.006 0.00114,3.9e-4 0.00228,4.8e-4 0.00342,9.5e-4 0.00313,9.5e-4 0.0063,0.002 0.00955,0.003 0.00214,4.8e-4 0.00427,9.5e-4 0.00643,0.001 0.00161,3.2e-4 0.00313,9.4e-4 0.00479,9.4e-4 5.697e-4,7e-5 0.00109,6e-5 0.00161,1.3e-4 0.00591,9.5e-4 0.011813,0.001 0.017706,0.001 7.07e-5,0 1.353e-4,-2e-5 1.866e-4,-2e-5 1.7e-5,0 5.12e-5,0 7.07e-5,0 0.00528,0 0.01047,-4.5e-4 0.015626,-9.5e-4 0.00104,-1.3e-4 0.00204,-2.6e-4 0.00304,-3.9e-4 0.010536,-10e-4 0.020716,-0.004 0.03035,-0.008 9.497e-4,-3.9e-4 0.00185,-9.5e-4 0.00275,-9.5e-4 0.00465,-0.002 0.00921,-0.004 0.013585,-0.007 8.072e-4,-4.5e-4 0.00157,-9.5e-4 0.00233,-10e-4 0.00366,-0.002 0.00722,-0.005 0.010641,-0.007 0.00104,-9.5e-4 0.00204,-0.001 0.00304,-0.002 0.0038,-0.003 0.00741,-0.007 0.010826,-0.0101 8.547e-4,-9.5e-4 0.00166,-0.002 0.00252,-0.003 0.00342,-0.004 0.00671,-0.008 0.00969,-0.012 8.35e-5,-1.3e-4 2.056e-4,-2.6e-4 2.896e-4,-3.9e-4 0.00323,-0.005 0.00606,-0.01 0.00867,-0.0146 2.061e-4,-3.9e-4 4.748e-4,-9.5e-4 7.123e-4,-9.5e-4 l 0.9325473,-1.86512 3.0897389,-1.34335 c 8.547e-4,-3.9e-4 0.00157,-9.5e-4 0.00242,-0.001 0.00247,-9.5e-4 0.0049,-0.002 0.0073,-0.004 1.932e-4,-1.2e-4 4.506e-4,-1.9e-4 7.122e-4,-3.2e-4 3.86e-4,-1.9e-4 8.072e-4,-3.8e-4 0.00119,-4.7e-4 9.021e-4,-4.8e-4 0.00171,-9.5e-4 0.00256,-10e-4 0.00195,-9.5e-4 0.00385,-0.002 0.00569,-0.004 0.00123,-9.5e-4 0.00247,-10e-4 0.00366,-0.002 4.501e-4,-3.2e-4 9.021e-4,-4.8e-4 0.00133,-9.5e-4 0.00138,-9.5e-4 0.00275,-0.002 0.00408,-0.003 3.214e-4,-2.6e-4 7.122e-4,-4.6e-4 0.00104,-4.8e-4 3.219e-4,-2.6e-4 6.647e-4,-4.7e-4 9.496e-4,-9.5e-4 0.00119,-9.5e-4 0.00233,-0.002 0.00347,-0.003 0.00114,-9.5e-4 0.00223,-0.002 0.00332,-0.003 6.46e-5,-6e-5 1.287e-4,-1.3e-4 1.932e-4,-1.9e-4 4.506e-4,-4.5e-4 9.972e-4,-9.5e-4 0.00147,-0.001 3.865e-4,-3.9e-4 6.647e-4,-9.5e-4 0.00104,-9.5e-4 8.546e-4,-9.5e-4 0.00171,-0.002 0.00252,-0.003 0.00104,-9.5e-4 0.00204,-0.002 0.00309,-0.003 9.971e-4,-9.5e-4 0.00199,-0.002 0.00294,-0.003 5.223e-4,-4.8e-4 0.00104,-10e-4 0.00157,-0.002 4.506e-4,-4.8e-4 8.546e-4,-9.5e-4 0.00128,-10e-4 4.506e-4,-4.7e-4 8.546e-4,-10e-4 0.00128,-0.002 1.287e-4,-1.9e-4 2.573e-4,-3.8e-4 3.86e-4,-4.7e-4 9.971e-4,-10e-4 0.00199,-0.003 0.00294,-0.004 3.219e-4,-4.5e-4 5.697e-4,-9.5e-4 8.546e-4,-0.001 9.972e-4,-10e-4 0.0019,-0.003 0.0028,-0.005 8.546e-4,-10e-4 0.00176,-0.003 0.00256,-0.005 3.42e-5,-7e-5 6.41e-5,-1.3e-4 1.286e-4,-1.9e-4 1.287e-4,-2.6e-4 2.574e-4,-4.5e-4 3.861e-4,-4.8e-4 9.021e-4,-0.002 0.00176,-0.004 0.00256,-0.006 6.647e-4,-0.001 0.00142,-0.003 0.00204,-0.005 1.287e-4,-2.6e-4 1.928e-4,-4.7e-4 3.214e-4,-9.5e-4 8.072e-4,-0.002 0.00142,-0.004 0.00209,-0.006 1.287e-4,-3.3e-4 1.928e-4,-4.8e-4 3.215e-4,-9.5e-4 1.287e-4,-3.9e-4 3.219e-4,-9.5e-4 4.506e-4,-9.5e-4 l 5.223e-4,-0.001 c 1.66e-5,-4e-5 1.66e-5,-6e-5 3.42e-5,-1.3e-4 l 0.5733603,-1.81563 h 1.2105754 c 6.4e-5,0 1.93e-4,1e-5 2.57e-4,1e-5 2.57e-4,0 5.7e-4,-5e-5 8.55e-4,-5e-5 0.0047,-3e-5 0.0093,-3.2e-4 0.01393,-9.5e-4 0.0013,-1.3e-4 0.0026,-3.8e-4 0.0038,-4.7e-4 0.0037,-4.8e-4 0.0074,-0.001 0.01094,-0.002 0.0013,-3.2e-4 0.0027,-4.8e-4 0.0039,-9.5e-4 0.0037,-9.5e-4 0.0073,-0.002 0.01079,-0.003 0.0011,-3.9e-4 0.0022,-9.5e-4 0.0033,-10e-4 0.0046,-0.002 0.0091,-0.004 0.01336,-0.006 1.29e-4,-5e-5 1.94e-4,-1.3e-4 3.22e-4,-1.9e-4 0.0041,-0.002 0.008,-0.005 0.01176,-0.007 0.0014,-9.5e-4 0.0028,-0.002 0.0042,-0.003 0.0025,-0.002 0.005,-0.004 0.0074,-0.006 0.0014,-10e-4 0.0027,-0.002 0.004,-0.004 0.0031,-0.003 0.0061,-0.006 0.009,-0.01 3.21e-4,-3.9e-4 6.64e-4,-4.8e-4 9.97e-4,-9.5e-4 0.0032,-0.004 0.0061,-0.008 0.0088,-0.0124 z m -1.4128114,-0.48996 -0.6518214,2.06412 -0.9777304,-1.19502 z m -6.5539227,-1.164 3.3246608,0.59368 -0.9498982,2.37475 z m 5.6649165,3.34146 -3.0698901,-0.23615 0.9445868,-2.36145 z m -2.7571216,1.33488 -0.3290429,-1.31617 2.8517033,0.21936 z m -0.2226303,0.16231 -0.567964,1.13593 0.3245482,-2.10959 z m -0.9662232,-2.28122 -1.9104868,-1.38945 h 0.7989358 z m 5.1230489,-1.45768 0.5722027,0.35762 H 8.4793023 Z"
       id="path3713"
       style="stroke-width:0.01702326" />
  </g>
</svg>
